<?xml version="1.0" encoding="UTF-8" standalone="no"?>
  <svg id="Layer_1" data-name="Layer 1" xmlns="http://www.w3.org/2000/svg" viewBox="0 0 136.79 40.14">
    <title>HUGAH</title>
    <path id="U" d="M41.51,30.5a5.47,5.47,0,0,1-.44,2.17,5.69,5.69,0,0,1-3,3,5.69,5.69,0,0,1-2.23.44,5.59,5.59,0,0,1-2.18-.44,5.25,5.25,0,0,1-1.78-1.21,5.67,5.67,0,0,1-1.19-1.78,5.3,5.3,0,0,1-.44-2.17V11.06H26.07V30.5a9.45,9.45,0,0,0,2.84,6.81,10.06,10.06,0,0,0,3.1,2,9.4,9.4,0,0,0,3.79.76,9.64,9.64,0,0,0,3.84-.76,10.13,10.13,0,0,0,3.14-2,9.3,9.3,0,0,0,2.12-3,9.12,9.12,0,0,0,.78-3.77V11.06H41.51Z"/>
    <polygon id="H" points="15.56 16.1 15.56 23.56 15.56 24 4.25 24 4.25 23.56 4.25 16.1 4.25 11.06 0 11.06 0 40.11 4.25 40.11 4.25 34.91 4.25 31.1 4.25 27.73 15.56 27.73 15.56 31.1 15.56 34.91 15.56 40.11 19.8 40.11 19.8 11.06 15.56 11.06 15.56 16.1"/>
    <polygon id="H-2" data-name="H" points="132.56 11.07 132.56 24 121.25 24 121.25 11.07 116.98 11.07 116.98 40.1 121.25 40.1 121.25 27.73 132.56 27.73 132.56 40.1 136.79 40.1 136.79 11.07 132.56 11.07"/>
    <path id="G" d="M80.63,24H66v3.73H76.1a10.59,10.59,0,0,1-3.4,6,10.4,10.4,0,0,1-3,1.76,9.58,9.58,0,0,1-7.27-.2,10.53,10.53,0,0,1-3.18-2.25,10.82,10.82,0,0,1-2.15-3.34,10.65,10.65,0,0,1-.79-4.1,10.36,10.36,0,0,1,.79-4.07,10.48,10.48,0,0,1,2.15-3.34,10,10,0,0,1,3.18-2.28,9.53,9.53,0,0,1,3.87-.83,9.09,9.09,0,0,1,4.86,1.36A9.74,9.74,0,0,1,74.71,20h4.9a17.39,17.39,0,0,0-2.15-3.61,15.55,15.55,0,0,0-3-2.81,13.93,13.93,0,0,0-3.77-1.85,14.35,14.35,0,0,0-14.49,3.61A15.08,15.08,0,0,0,53.09,20,14.09,14.09,0,0,0,52,25.62a14,14,0,0,0,1.13,5.65A14.65,14.65,0,0,0,60.73,39a14.65,14.65,0,0,0,10.78.2,14.55,14.55,0,0,0,4.3-2.65A14.25,14.25,0,0,0,79,32.63a14.09,14.09,0,0,0,1.62-4.9c0-.36.1-.69.1-1s.06-.73.06-1.09,0-.53,0-.8A6.05,6.05,0,0,0,80.63,24Z"/>
    <path id="A" d="M105.67,13.84a9.94,9.94,0,0,0-3.08-2,9.15,9.15,0,0,0-3.8-.76,9.28,9.28,0,0,0-3.84.76,10,10,0,0,0-3.14,2,9.27,9.27,0,0,0-2.11,3.05,8.91,8.91,0,0,0-.8,3.77V40.1h4.17V27.73h11.28V40.1h4.16V20.66a9.37,9.37,0,0,0-.76-3.77A9.19,9.19,0,0,0,105.67,13.84ZM93.07,24V20.66a5.69,5.69,0,0,1,.43-2.15,5.22,5.22,0,0,1,1.22-1.79,5.76,5.76,0,0,1,1.82-1.22,5.6,5.6,0,0,1,6.19,1.22,5.77,5.77,0,0,1,1.19,1.79,5.33,5.33,0,0,1,.43,2.15V24Z"/>
    <circle id="dot-1" cx="28.17" cy="2.09" r="2.09"/>
    <circle id="dot-2" cx="43.58" cy="2.09" r="2.09"/>
  </svg>
